<svg width="14" height="12" viewBox="0 0 14 12" fill="none" xmlns="http://www.w3.org/2000/svg">
<path d="M7.079 1.41455V7.75005C7.0789 7.1892 7.24513 6.64092 7.55666 6.17454C7.86819 5.70817 8.31103 5.34466 8.82917 5.12999C9.34731 4.91531 9.91748 4.85912 10.4676 4.96851C11.0176 5.0779 11.5229 5.34797 11.9195 5.74455C12.3161 6.14113 12.5861 6.64641 12.6955 7.19649C12.8049 7.74657 12.7487 8.31674 12.5341 8.83488C12.3194 9.35302 11.9559 9.79586 11.4895 10.1074C11.0231 10.4189 10.4749 10.5851 9.914 10.585C6.045 10.585 5.988 6.79355 3.5185 6.79355C1.3935 6.79355 1.25 8.43005 1.25 8.43005" stroke="black"/>
</svg>
