<svg xmlns="http://www.w3.org/2000/svg" style="display: none;">
  <defs>
    <symbol id="facebook" viewBox="0 0 27 27">
      <path d="M26.6667 13.3333C26.6667 5.97333 20.6933 0 13.3333 0C5.97333 0 0 5.97333 0 13.3333C0 19.7867 4.58667 25.16 10.6667 26.4V17.3333H8V13.3333H10.6667V10C10.6667 7.42666 12.76 5.33333 15.3333 5.33333H18.6667V9.33333H16C15.2667 9.33333 14.6667 9.93333 14.6667 10.6667V13.3333H18.6667V17.3333H14.6667V26.6C21.4 25.9333 26.6667 20.2533 26.6667 13.3333Z" fill="currentColor"/>
    </symbol>
    
    <symbol id="instagram" viewBox="0 0 24 24">
      <path d="M12 2.163c3.204 0 3.584.012 4.85.07 3.252.148 4.771 1.691 4.919 4.919.058 1.265.069 1.645.069 4.849 0 3.205-.012 3.584-.069 4.849-.149 3.225-1.664 4.771-4.919 4.919-1.266.058-1.644.07-4.85.07-3.204 0-3.584-.012-4.849-.07-3.26-.149-4.771-1.699-4.919-4.92-.058-1.265-.07-1.644-.07-4.849 0-3.204.013-3.583.07-4.849.149-3.227 1.664-4.771 4.919-4.919 1.266-.057 1.645-.069 4.849-.069zm0-2.163c-3.259 0-3.667.014-4.947.072-4.358.2-6.78 2.618-6.98 6.98-.059 1.281-.073 1.689-.073 4.948 0 3.259.014 3.668.072 4.948.2 4.358 2.618 6.78 6.98 6.98 1.281.058 1.689.072 4.948.072 3.259 0 3.668-.014 4.948-.072 4.354-.2 6.782-2.618 6.979-6.98.059-1.28.073-1.689.073-4.948 0-3.259-.014-3.667-.072-4.947-.196-4.354-2.617-6.78-6.979-6.98-1.281-.059-1.69-.073-4.949-.073zm0 5.838c-3.403 0-6.162 2.759-6.162 6.162s2.759 6.163 6.162 6.163 6.162-2.759 6.162-6.163c0-3.403-2.759-6.162-6.162-6.162zm0 10.162c-2.209 0-4-1.79-4-4 0-2.209 1.791-4 4-4s4 1.791 4 4c0 2.21-1.791 4-4 4zm6.406-11.845c-.796 0-1.441.645-1.441 1.44s.645 1.44 1.441 1.44c.795 0 1.439-.645 1.439-1.44s-.644-1.44-1.439-1.44z" fill="currentColor"/>
    </symbol>
    
    <symbol id="tiktok" viewBox="0 0 24 24">
      <path d="M19.59 6.69a4.83 4.83 0 0 1-3.77-4.25V2h-3.45v13.67a2.89 2.89 0 0 1-5.2 1.74 2.89 2.89 0 0 1 2.31-4.64 2.93 2.93 0 0 1 .88.13V9.4a6.84 6.84 0 0 0-1-.05A6.33 6.33 0 0 0 5 20.1a6.34 6.34 0 0 0 10.86-4.43v-7a8.16 8.16 0 0 0 4.77 1.52v-3.4a4.85 4.85 0 0 1-1-.1z" fill="currentColor"/>
    </symbol>
    
    <symbol id="booksy" viewBox="0 0 28 28">
      <g clip-path="url(#clip0_958_2033)">
        <path d="M14.1374 6V17.7445C14.1372 16.7049 14.4263 15.6885 14.9681 14.8239C15.5099 13.9594 16.2801 13.2855 17.1811 12.8875C18.0823 12.4896 19.0739 12.3854 20.0306 12.5883C20.9871 12.791 21.8659 13.2917 22.5556 14.0268C23.2453 14.762 23.715 15.6987 23.9053 16.7184C24.0955 17.7381 23.9978 18.795 23.6245 19.7555C23.2511 20.7161 22.6189 21.5371 21.8078 22.1145C20.9968 22.692 20.0432 23.0002 19.0678 23C12.3391 23 12.24 15.9714 7.94522 15.9714C4.24956 15.9714 4 19.0051 4 19.0051" stroke="currentColor" stroke-width="2.5" stroke-linecap="round" stroke-linejoin="round" fill="none"/>
        <path d="M24.1892 1H3.81081C3.06534 1 2.3504 1.29614 1.82327 1.82327C1.29614 2.3504 1 3.06534 1 3.81081V24.1892C1 24.9347 1.29614 25.6496 1.82327 26.1767C2.3504 26.7039 3.06534 27 3.81081 27H24.1892C24.9347 27 25.6496 26.7039 26.1767 26.1767C26.7039 25.6496 27 24.9347 27 24.1892V3.81081C27 3.06534 26.7039 2.3504 26.1767 1.82327C25.6496 1.29614 24.9347 1 24.1892 1Z" stroke="currentColor" stroke-width="2.5" stroke-linecap="round" stroke-linejoin="round" fill="none"/>
      </g>
      <defs>
        <clipPath id="clip0_958_2033">
          <rect width="28" height="28" fill="none"/>
        </clipPath>
      </defs>
    </symbol>
    
    <symbol id="google-maps" viewBox="0 0 24 24">
      <path d="M12 2C8.13 2 5 5.13 5 9c0 5.25 7 13 7 13s7-7.75 7-13c0-3.87-3.13-7-7-7zm0 9.5c-1.38 0-2.5-1.12-2.5-2.5s1.12-2.5 2.5-2.5 2.5 1.12 2.5 2.5-1.12 2.5-2.5 2.5z" fill="currentColor"/>
    </symbol>
    
    <symbol id="lesson" viewBox="0 0 24 24">
      <path d="M12 3L1 9l4 2.18v6L12 21l7-3.82v-6l2-1.09V17h2V9L12 3zm6.82 6L12 12.72 5.18 9 12 5.28 18.82 9zM17 15.99l-5 2.73-5-2.73v-3.72L12 15l5-2.73v3.72z" fill="currentColor"/>
    </symbol>
    
    <symbol id="narrowup" viewBox="0 0 24 24">
      <path d="M7.41 15.41L12 10.83l4.59 4.58L18 14l-6-6-6 6z" fill="currentColor"/>
    </symbol>
    
    <symbol id="narrowdown" viewBox="0 0 24 24">
      <path d="M7.41 8.59L12 13.17l4.59-4.58L18 10l-6 6-6-6 1.41-1.41z" fill="currentColor"/>
    </symbol>
  </defs>
</svg>